<?xml version="1.0" encoding="UTF-8" standalone="no"?>
<!DOCTYPE svg PUBLIC "-//W3C//DTD SVG 1.1//EN" "http://www.w3.org/Graphics/SVG/1.1/DTD/svg11.dtd">
<svg width="356" height="96" viewBox="0 0 356 96" fill="none" xmlns="http://www.w3.org/2000/svg">
	<path d="M1.18182 94V85.8182L51.3636 10.9091H0.636364V0.909088H64.8182V9.0909L14.6364 84H65.3636V94H1.18182ZM103.364 95.6364C98.9394 95.6364 94.9242 94.803 91.3182 93.1364C87.7121 91.4394 84.8485 89 82.7273 85.8182C80.6061 82.6061 79.5455 78.7273 79.5455 74.1818C79.5455 70.1818 80.3333 66.9394 81.9091 64.4545C83.4848 61.9394 85.5909 59.9697 88.2273 58.5455C90.8636 57.1212 93.7727 56.0606 96.9545 55.3636C100.167 54.6364 103.394 54.0606 106.636 53.6364C110.879 53.0909 114.318 52.6818 116.955 52.4091C119.621 52.1061 121.561 51.6061 122.773 50.9091C124.015 50.2121 124.636 49 124.636 47.2727V46.9091C124.636 42.4242 123.409 38.9394 120.955 36.4545C118.53 33.9697 114.848 32.7273 109.909 32.7273C104.788 32.7273 100.773 33.8485 97.8636 36.0909C94.9545 38.3333 92.9091 40.7273 91.7273 43.2727L81.5455 39.6364C83.3636 35.3939 85.7879 32.0909 88.8182 29.7273C91.8788 27.3333 95.2121 25.6667 98.8182 24.7273C102.455 23.7576 106.03 23.2727 109.545 23.2727C111.788 23.2727 114.364 23.5455 117.273 24.0909C120.212 24.6061 123.045 25.6818 125.773 27.3182C128.53 28.9545 130.818 31.4242 132.636 34.7273C134.455 38.0303 135.364 42.4545 135.364 48V94H124.636V84.5455H124.091C123.364 86.0606 122.152 87.6818 120.455 89.4091C118.758 91.1364 116.5 92.6061 113.682 93.8182C110.864 95.0303 107.424 95.6364 103.364 95.6364ZM105 86C109.242 86 112.818 85.1667 115.727 83.5C118.667 81.8333 120.879 79.6818 122.364 77.0455C123.879 74.4091 124.636 71.6364 124.636 68.7273V58.9091C124.182 59.4545 123.182 59.9545 121.636 60.4091C120.121 60.8333 118.364 61.2121 116.364 61.5455C114.394 61.8485 112.47 62.1212 110.591 62.3636C108.742 62.5758 107.242 62.7576 106.091 62.9091C103.303 63.2727 100.697 63.8636 98.2727 64.6818C95.8788 65.4697 93.9394 66.6667 92.4545 68.2727C91 69.8485 90.2727 72 90.2727 74.7273C90.2727 78.4545 91.6515 81.2727 94.4091 83.1818C97.197 85.0606 100.727 86 105 86ZM209.534 24.1818L183.716 94H172.807L146.989 24.1818H158.625L177.898 79.8182H178.625L197.898 24.1818H209.534ZM249.557 95.4545C243.254 95.4545 237.723 93.9545 232.966 90.9545C228.239 87.9545 224.542 83.7576 221.875 78.3636C219.239 72.9697 217.92 66.6667 217.92 59.4545C217.92 52.1818 219.239 45.8333 221.875 40.4091C224.542 34.9848 228.239 30.7727 232.966 27.7727C237.723 24.7727 243.254 23.2727 249.557 23.2727C255.86 23.2727 261.375 24.7727 266.102 27.7727C270.86 30.7727 274.557 34.9848 277.193 40.4091C279.86 45.8333 281.193 52.1818 281.193 59.4545C281.193 66.6667 279.86 72.9697 277.193 78.3636C274.557 83.7576 270.86 87.9545 266.102 90.9545C261.375 93.9545 255.86 95.4545 249.557 95.4545ZM249.557 85.8182C254.345 85.8182 258.284 84.5909 261.375 82.1364C264.466 79.6818 266.754 76.4545 268.239 72.4545C269.723 68.4545 270.466 64.1212 270.466 59.4545C270.466 54.7879 269.723 50.4394 268.239 46.4091C266.754 42.3788 264.466 39.1212 261.375 36.6364C258.284 34.1515 254.345 32.9091 249.557 32.9091C244.769 32.9091 240.83 34.1515 237.739 36.6364C234.648 39.1212 232.36 42.3788 230.875 46.4091C229.39 50.4394 228.648 54.7879 228.648 59.4545C228.648 64.1212 229.39 68.4545 230.875 72.4545C232.36 76.4545 234.648 79.6818 237.739 82.1364C240.83 84.5909 244.769 85.8182 249.557 85.8182ZM323.932 95.4545C318.114 95.4545 312.977 93.9848 308.523 91.0455C304.068 88.0758 300.583 83.8939 298.068 78.5C295.553 73.0758 294.295 66.6667 294.295 59.2727C294.295 51.9394 295.553 45.5758 298.068 40.1818C300.583 34.7879 304.083 30.6212 308.568 27.6818C313.053 24.7424 318.235 23.2727 324.114 23.2727C328.659 23.2727 332.25 24.0303 334.886 25.5455C337.553 27.0303 339.583 28.7273 340.977 30.6364C342.402 32.5151 343.508 34.0606 344.295 35.2727H345.205V0.909088H355.932V94H345.568V83.2727H344.295C343.508 84.5455 342.386 86.1515 340.932 88.0909C339.477 90 337.402 91.7121 334.705 93.2273C332.008 94.7121 328.417 95.4545 323.932 95.4545ZM325.386 85.8182C329.689 85.8182 333.326 84.697 336.295 82.4545C339.265 80.1818 341.523 77.0455 343.068 73.0455C344.614 69.0152 345.386 64.3636 345.386 59.0909C345.386 53.8788 344.629 49.3182 343.114 45.4091C341.598 41.4697 339.356 38.4091 336.386 36.2273C333.417 34.0151 329.75 32.9091 325.386 32.9091C320.841 32.9091 317.053 34.0758 314.023 36.4091C311.023 38.7121 308.765 41.8485 307.25 45.8182C305.765 49.7576 305.023 54.1818 305.023 59.0909C305.023 64.0606 305.78 68.5758 307.295 72.6364C308.841 76.6667 311.114 79.8788 314.114 82.2727C317.144 84.6364 320.902 85.8182 325.386 85.8182Z" fill="white"/>
</svg>